<svg width="331" height="306" viewBox="0 0 331 306" fill="none" xmlns="http://www.w3.org/2000/svg">
<path fill-rule="evenodd" clip-rule="evenodd" d="M149.681 72.2103C137.857 80.8636 123.275 85.9723 107.5 85.9723C68.0116 85.9723 36 53.9607 36 14.4723C36 9.77336 36.4533 5.18026 37.3185 0.734364C19.5439 13.742 8 34.7591 8 58.4723C8 97.9607 40.0116 129.972 79.5 129.972C114.289 129.972 143.276 105.126 149.681 72.2103Z" fill="#FAE02F"/>
<path d="M276.972 101.25L271 116.427C272.155 121.707 273.286 127.66 274.193 134L284.826 111.542L285 111.813C282.564 107.564 279.794 103.898 276.788 101L276.972 101.25Z" fill="#FFF29A"/>
<path d="M269.977 116L276 100.809C272.468 97.4833 268.629 95.1675 264.623 94.1454C264.415 94.0922 264.207 94.0457 264 94C264.483 95.4396 267.263 103.908 269.977 116Z" fill="#FFF29A"/>
<path d="M295.862 147.646L296 147.992C295.853 145.636 295.622 143.305 295.307 141L276.255 164.97L276.185 164.814C276.144 166.229 276.082 167.624 276 169L295.862 147.646Z" fill="#FFF29A"/>
<path d="M291.842 128.705L292 129.022C290.348 123.089 288.009 117.375 285.031 112L274 135.4C274.838 141.48 275.399 147.346 275.683 153L291.842 128.705Z" fill="#FFF29A"/>
<path d="M238.983 113C237.56 117.091 236.56 121.314 236 125.603L275 148C274.651 143.175 274.123 138.56 273.511 134.294L238.941 113.363L238.983 113Z" fill="#FFF29A"/>
<path d="M236 131.581L236.035 131.221L275 153C274.945 151.832 274.878 150.673 274.801 149.525L236.419 127.359L236.457 127C236.262 128.49 236.11 130.017 236 131.581Z" fill="#FFF29A"/>
<path d="M294.852 140.762L295 141.088C294.419 137.006 293.561 132.967 292.433 129L276 153.204C276.169 156.91 276.211 160.509 276.127 164L294.852 140.762Z" fill="#FFF29A"/>
<path d="M273.278 184.478C271.691 192.178 269.259 199.045 266 205C270.557 201.199 288.646 185.105 294 165L273.278 184.478Z" fill="#FFF29A"/>
<path d="M237 149C237.84 152.888 238.94 156.716 240.292 160.458L240.353 160.061L273.285 184C274.12 179.653 274.692 175.259 275 170.843L237 149Z" fill="#FFF29A"/>
<path d="M270 115C267.098 102.229 264.124 93.645 264.081 93.5219L264.268 93.364C258.191 92.1274 252.601 94.0912 248 98.5015L270 115Z" fill="#FFF29A"/>
<path d="M275.669 170.008C275.64 170.423 275.613 170.84 275.58 171.251C275.273 175.192 274.745 179.114 274 183L294.534 163.765L294.661 164.099C295.574 160.562 296.024 156.927 295.999 153.28C295.983 151.847 295.932 150.421 295.846 149L275.669 170.008Z" fill="#FFF29A"/>
<path d="M273 134C272.076 127.632 270.929 121.655 269.757 116.354L247.316 99.3541L247.375 99C243.949 102.403 241.086 107.196 239 113.052L273 134Z" fill="#FFF29A"/>
<path d="M273 184.575L240 161C248.179 183.259 264.129 204.642 265.15 206C268.93 199.483 271.434 192.175 273 184.575Z" fill="#FFF29A"/>
<path d="M275.677 170L275.696 169.98C276.04 164.668 276.092 159.342 275.852 154.024L236.182 132C236.041 134.137 235.982 136.335 236.005 138.593C236.066 141.823 236.427 145.04 237.084 148.205L275.677 170Z" fill="#FFF29A"/>
<path d="M330.708 186.314L315.976 194.243C313.436 199.105 310.434 204.475 307 210L330.235 199.436L330.197 199.76C331.037 194.868 331.227 190.212 330.725 186L330.708 186.314Z" fill="#FFF29A"/>
<path d="M316 193L330 185.436C329.411 180.795 327.961 176.715 325.58 173.491C325.456 173.324 325.329 173.162 325.201 173C324.669 174.365 321.488 182.359 316 193Z" fill="#FFF29A"/>
<path d="M314.287 234.374L314.176 234.722C315.53 232.849 316.805 230.941 318 229L288.698 235.114L288.743 234.952C287.832 235.996 286.918 237.012 286 238L314.287 234.374Z" fill="#FFF29A"/>
<path d="M324.733 216.908L324.656 217.247C327.117 211.727 328.911 205.938 330 200L306.779 210.663C303.599 215.778 300.339 220.557 297 225L324.733 216.908Z" fill="#FFF29A"/>
<path d="M293.362 172C289.651 174.28 286.18 176.929 283 179.909L298.338 222C301.169 218.029 303.729 214.106 306 210.403L293.097 172.255L293.362 172Z" fill="#FFF29A"/>
<path d="M280 183.289L280.255 183.03L295.946 225C296.646 224.051 297.33 223.103 298 222.155L282.996 180.257L283.252 180C282.159 181.041 281.075 182.137 280 183.289Z" fill="#FFF29A"/>
<path d="M318.315 228.827L318.22 229.179C320.392 225.589 322.323 221.854 324 218L295.829 226.417C293.581 229.445 291.304 232.306 289 235L318.315 228.827Z" fill="#FFF29A"/>
<path d="M274.729 249.02C268.571 253.836 262.306 257.511 256 260C261.906 259.918 286.001 258.837 303 247L274.729 249.02Z" fill="#FFF29A"/>
<path d="M269.752 198C267.927 201.524 266.339 205.167 265 208.904L265.298 208.638L275.333 248C278.732 245.188 281.96 242.175 285 238.975L269.752 198Z" fill="#FFF29A"/>
<path d="M316.382 193C322.434 181.188 325.706 172.595 325.752 172.471L326 172.467C322.077 167.619 316.45 165.576 310 166.073L316.382 193Z" fill="#FFF29A"/>
<path d="M284.768 238.749C284.475 239.06 284.182 239.374 283.888 239.679C281.078 242.613 278.11 245.391 275 248L303.348 245.889L303.229 246.236C306.24 244.011 308.96 241.412 311.323 238.499C312.246 237.35 313.138 236.184 314 235L284.768 238.749Z" fill="#FFF29A"/>
<path d="M306.482 210C309.74 204.545 312.589 199.247 315 194.45L308.73 167.234L308.994 167C304.315 167.432 299.197 169.284 294 172.441L306.482 210Z" fill="#FFF29A"/>
<path d="M275 248.282L264.872 209C256.7 231.526 255.095 258.295 255 260C262.158 257.318 268.846 253.211 275 248.282Z" fill="#FFF29A"/>
<path d="M285.52 238L285.547 237.997C289.251 234.121 292.74 230.051 296 225.805L279.802 184C278.309 185.558 276.841 187.213 275.396 188.967C273.352 191.492 271.546 194.196 270 197.045L285.52 238Z" fill="#FFF29A"/>
<path d="M233.04 161.185L232 177.89C234.738 182.667 237.661 188.11 240.488 194L243.749 168.707L244 168.915C240.352 165.552 236.564 162.864 232.787 161L233.04 161.185Z" fill="#FFF29A"/>
<path d="M230.999 177L232 160.833C227.782 158.781 223.581 157.776 219.613 158.042C219.407 158.056 219.203 158.076 219 158.096C219.87 159.305 224.927 166.435 230.999 177Z" fill="#FFF29A"/>
<path d="M265.757 201.028L266 201.309C265.117 199.157 264.159 197.054 263.129 195L252.117 223.164L252 223.04C252.404 224.372 252.783 225.692 253.135 227L265.757 201.028Z" fill="#FFF29A"/>
<path d="M255.756 183.452L256 183.697C252.659 178.685 248.737 174.087 244.317 170L241 195.146C243.621 200.544 245.917 205.828 247.888 211L255.756 183.452Z" fill="#FFF29A"/>
<path d="M201.008 185C200.941 189.257 201.315 193.51 202.127 197.694L246 207C244.162 202.586 242.22 198.422 240.307 194.611L201.081 185.352L201.008 185Z" fill="#FFF29A"/>
<path d="M204.003 202.513L203.923 202.159L248 211C247.58 209.901 247.153 208.816 246.718 207.743L203.077 198.354L203 198C203.282 199.482 203.616 200.987 204.003 202.513Z" fill="#FFF29A"/>
<path d="M262.763 194.364L263 194.627C261.215 190.951 259.185 187.401 256.925 184L249 211.849C250.287 215.296 251.423 218.68 252.409 222L262.763 194.364Z" fill="#FFF29A"/>
<path d="M256.434 242.052C257.353 249.938 257.21 257.281 256 264C259.114 258.955 271.163 237.959 269.909 217L256.434 242.052Z" fill="#FFF29A"/>
<path d="M210 219C211.987 222.426 214.2 225.715 216.626 228.845L216.562 228.451L255 241C254.453 236.623 253.645 232.283 252.579 228.003L210 219Z" fill="#FFF29A"/>
<path d="M231 177C224.273 165.636 218.78 158.314 218.701 158.209L218.829 158C212.681 158.69 207.991 162.303 205 167.958L231 177Z" fill="#FFF29A"/>
<path d="M254 228.115C254.103 228.518 254.208 228.924 254.306 229.325C255.252 233.174 255.985 237.072 256.502 241L269.775 216.468L270 216.747C269.75 213.101 269.033 209.501 267.867 206.033C267.403 204.672 266.908 203.328 266.382 202L254 228.115Z" fill="#FFF29A"/>
<path d="M240 194C237.14 188.313 234.187 183.059 231.421 178.447L204.694 169.35L204.64 169C202.423 173.234 201.175 178.599 201 184.724L240 194Z" fill="#FFF29A"/>
<path d="M255.425 242.345L217 230C231.639 248.6 253.324 264.024 254.709 265C256.238 257.689 256.318 250.014 255.425 242.345Z" fill="#FFF29A"/>
<path d="M252.988 227L253 226.975C251.669 221.852 250.059 216.802 248.178 211.85L204 203C204.533 205.063 205.161 207.157 205.886 209.284C206.95 212.318 208.291 215.249 209.894 218.042L252.988 227Z" fill="#FFF29A"/>
<path d="M196 164C205.941 164 214 155.941 214 146C214 136.059 205.941 128 196 128C186.059 128 178 136.059 178 146C178 155.941 186.059 164 196 164Z" fill="#2F2E41"/>
<path d="M215 141C224.941 141 233 132.941 233 123C233 113.059 224.941 105 215 105C205.059 105 197 113.059 197 123C197 132.941 205.059 141 215 141Z" fill="#2F2E41"/>
<path d="M230.904 137.733C226.158 141.13 220.045 142.039 214.501 140.172C208.958 138.306 204.671 133.895 203 128.338C203.85 135.029 208.427 140.68 214.839 142.953C221.251 145.226 228.409 143.736 233.354 139.098C238.299 134.461 240.192 127.464 238.248 121C239.073 127.488 236.257 133.904 230.904 137.733Z" fill="#2F2E41"/>
<path d="M191.5 168C199.508 168 206 161.508 206 153.5C206 145.492 199.508 139 191.5 139C183.492 139 177 145.492 177 153.5C177 161.508 183.492 168 191.5 168Z" fill="#A0616A"/>
<path d="M186.4 165.373C186.4 165.373 192.4 174.328 191.5 178.209C191.5 178.209 187.6 180 187.6 180.597C187.6 181.194 184 186.866 184 186.866L179.8 192.537L178 200H186.7L196.3 192.537L205.6 182.388C205.6 182.388 211.9 179.403 215.2 181.791L217 183.284C217 183.284 210.7 174.925 207.7 173.134C207.7 173.134 202.3 166.567 202.9 160L186.4 165.373Z" fill="#A0616A"/>
<path d="M188.918 178C188.918 178 182.969 181.298 180.589 187.593C178.21 193.888 167.502 214.872 167.502 214.872C167.502 214.872 166.61 228.362 167.204 228.962C167.799 229.561 174.641 222.966 175.83 221.167C177.02 219.369 181.779 197.785 181.779 197.785L189.513 185.195L191 178L188.918 178Z" fill="#A0616A"/>
<path d="M170 214.926L167.34 214.039C167.34 214.039 151.082 203.99 150.195 199.556C149.308 195.122 136.302 180.343 136.007 188.324C135.711 196.305 145.466 205.172 145.466 205.172C145.466 205.172 166.748 235.025 167.931 226.453L170 214.926Z" fill="#A0616A"/>
<path d="M197 195.322C197 195.322 197.3 203.636 209 206.605C209 206.605 221 222.64 222.2 229.766C223.4 236.893 254.9 273.416 254.9 273.416C254.9 273.416 284 276.98 284 273.416C284 269.853 259.7 266.884 259.7 266.884C259.7 266.884 234.2 229.47 233 224.422C231.8 219.374 220.4 181.96 215 182.256C215 182.256 209.9 179.881 206.9 181.663C203.9 183.444 197 195.322 197 195.322Z" fill="#A0616A"/>
<path d="M162.225 228.249C162.225 228.249 141.336 200.406 136.86 198.629C132.383 196.852 126.713 195.667 123.431 199.814C120.148 203.961 81.3537 252.537 81.3537 252.537C81.3537 252.537 67.6265 266.459 60.7628 263.793C60.7628 263.793 57.1818 266.755 65.5375 267.347C73.8933 267.94 81.6522 265.57 81.6522 265.57C81.6522 265.57 86.7253 266.459 90.3063 267.347C93.8873 268.236 98.3636 268.532 98.0652 266.162L96.8715 256.684C96.8715 256.684 127.609 231.507 128.504 220.844C128.504 220.844 127.907 215.809 128.504 216.401C129.101 216.993 141.634 230.322 147.304 233.284C152.974 236.246 167 240.393 167 240.393L162.225 228.249Z" fill="#A0616A"/>
<path opacity="0.1" d="M162.225 228.249C162.225 228.249 141.336 200.406 136.86 198.629C132.383 196.852 126.713 195.667 123.431 199.814C120.148 203.961 81.3537 252.537 81.3537 252.537C81.3537 252.537 67.6265 266.459 60.7628 263.793C60.7628 263.793 57.1818 266.755 65.5375 267.347C73.8933 267.94 81.6522 265.57 81.6522 265.57C81.6522 265.57 86.7253 266.459 90.3063 267.347C93.8873 268.236 98.3636 268.532 98.0652 266.162L96.8715 256.684C96.8715 256.684 127.609 231.507 128.504 220.844C128.504 220.844 127.907 215.809 128.504 216.401C129.101 216.993 141.634 230.322 147.304 233.284C152.974 236.246 167 240.393 167 240.393L162.225 228.249Z" fill="black"/>
<path d="M165.713 232C165.713 232 138.226 221.602 134.64 219.225C131.055 216.849 118.208 212.095 111.634 217.443C105.061 222.791 73.092 247.449 62.336 249.826C51.58 252.203 33.0557 257.848 33.0557 257.848C33.0557 257.848 21.1045 258.739 33.952 263.79C33.952 263.79 49.7873 265.275 52.4763 267.652C55.1653 270.029 64.1287 273 64.7262 269.137C65.3238 265.275 67.1165 260.225 70.403 259.63C73.6896 259.036 113.128 248.341 119.104 236.754C119.104 236.754 132.549 244.181 140.915 252.797C149.281 261.413 169 266.166 169 266.166L165.713 232Z" fill="#A0616A"/>
<path d="M175.625 223C175.625 223 162.67 226.499 161.611 225.2C160.552 223.901 154.937 231.108 160.256 245.521C165.576 259.935 164.394 266.541 167.35 268.643C170.305 270.745 184.196 267.442 188.333 268.943C192.471 270.445 197.791 271.646 199.564 262.938C201.337 254.229 205.771 238.915 204.884 236.813C203.997 234.711 199.269 229.906 199.269 229.906L189.516 224.802L175.625 223Z" fill="#3F3D56"/>
<path d="M220.552 189.644C220.552 189.644 218.474 183.821 214.615 182.73C214.289 182.641 213.967 182.536 213.652 182.414C212.203 181.839 207.781 180.582 204.579 185.016C200.698 190.39 197.115 196.66 200.101 200.242C203.086 203.825 209.058 205.915 209.058 205.915L213.536 211.587C213.536 211.587 204.579 227.709 204.579 235.173C204.579 235.173 204.281 238.159 199.205 232.785C194.13 227.411 173.359 223.695 173.359 223.695C173.359 223.695 177.709 217.857 174.425 215.17C171.141 212.483 168.134 201.78 175.907 197.578L189.203 178L191.592 178.299C191.592 178.299 188.457 181.135 188.158 182.628C187.86 184.12 175.917 194.57 180.694 196.361C185.471 198.152 193.234 194.271 196.518 189.793C198.324 187.33 200.853 183.964 204.055 181.83C207.401 179.646 211.66 179.418 215.221 181.231L216.223 181.732C218.175 183.098 219.706 184.982 220.644 187.171L221 188.002L220.552 189.644Z" fill="#2F2E41"/>
<path d="M201 162C208.18 162 214 156.18 214 149C214 141.82 208.18 136 201 136C193.82 136 188 141.82 188 149C188 156.18 193.82 162 201 162Z" fill="#2F2E41"/>
<path d="M189.5 153C195.851 153 201 148.971 201 144C201 139.029 195.851 135 189.5 135C183.149 135 178 139.029 178 144C178 148.971 183.149 153 189.5 153Z" fill="#2F2E41"/>
<path d="M194 162C195.105 162 196 160.433 196 158.5C196 156.567 195.105 155 194 155C192.895 155 192 156.567 192 158.5C192 160.433 192.895 162 194 162Z" fill="#A0616A"/>
<path d="M197 128.576V152H190V128.576C190 127.706 190.73 127 191.631 127H195.369C196.27 127 197 127.706 197 128.576Z" fill="#FAE02F"/>
<path d="M193.5 165C197.642 165 201 161.642 201 157.5C201 153.358 197.642 150 193.5 150C189.358 150 186 153.358 186 157.5C186 161.642 189.358 165 193.5 165Z" fill="#FFF29A"/>
<path d="M193.5 161C195.433 161 197 159.433 197 157.5C197 155.567 195.433 154 193.5 154C191.567 154 190 155.567 190 157.5C190 159.433 191.567 161 193.5 161Z" fill="#F2F2F2"/>
<path d="M194 158C194.552 158 195 157.552 195 157C195 156.448 194.552 156 194 156C193.448 156 193 156.448 193 157C193 157.552 193.448 158 194 158Z" fill="#FF6584"/>
<path opacity="0.1" d="M197 128.787V130H190V128.787C190 127.8 190.73 127 191.631 127H195.369C196.27 127 197 127.8 197 128.787Z" fill="black"/>
<path d="M117.962 187.637L135.562 169.965C136.178 169.347 137.013 169 137.884 169C138.754 169 139.589 169.347 140.205 169.965L156.038 185.862C157.321 187.149 157.321 189.236 156.038 190.524L139.594 207.035C138.377 208.256 136.428 208.327 135.126 207.198L118.137 192.462C117.446 191.863 117.035 191.003 117.002 190.087C116.969 189.172 117.317 188.284 117.962 187.637Z" fill="#2F2E41"/>
<path d="M123 190.114L138.34 175L151 187.473L136.255 202L123 190.114Z" fill="#F2F2F2"/>
<path d="M136.5 196C140.642 196 144 192.642 144 188.5C144 184.358 140.642 181 136.5 181C132.358 181 129 184.358 129 188.5C129 192.642 132.358 196 136.5 196Z" fill="#FFF29A"/>
<path opacity="0.1" d="M133.232 194.349C130.602 192.014 130.064 188.258 131.942 185.346C133.819 182.435 137.599 181.165 141 182.304C138.566 180.693 135.363 180.565 132.794 181.976C130.225 183.387 128.757 186.08 129.033 188.876C129.309 191.672 131.278 194.062 134.079 195C133.781 194.802 133.497 194.585 133.232 194.349Z" fill="black"/>
<path d="M140.355 187.212C141.255 188.001 141.302 190.837 139.928 192.2C138.554 193.563 136.278 192.936 135.378 192.148C134.478 191.36 135.295 190.709 136.669 189.346C138.043 187.984 139.455 186.424 140.355 187.212Z" fill="#F2F2F2"/>
<path d="M133 190C134.105 190 135 189.105 135 188C135 186.895 134.105 186 133 186C131.895 186 131 186.895 131 188C131 189.105 131.895 190 133 190Z" fill="#2F2E41"/>
<path d="M137 186C138.105 186 139 185.105 139 184C139 182.895 138.105 182 137 182C135.895 182 135 182.895 135 184C135 185.105 135.895 186 137 186Z" fill="#2F2E41"/>
<path d="M133.5 189C133.776 189 134 188.776 134 188.5C134 188.224 133.776 188 133.5 188C133.224 188 133 188.224 133 188.5C133 188.776 133.224 189 133.5 189Z" fill="#F2F2F2"/>
<path d="M132.5 188C132.776 188 133 187.776 133 187.5C133 187.224 132.776 187 132.5 187C132.224 187 132 187.224 132 187.5C132 187.776 132.224 188 132.5 188Z" fill="#F2F2F2"/>
<path d="M136.5 183C136.776 183 137 182.776 137 182.5C137 182.224 136.776 182 136.5 182C136.224 182 136 182.224 136 182.5C136 182.776 136.224 183 136.5 183Z" fill="#F2F2F2"/>
<path d="M137.5 185C137.776 185 138 184.776 138 184.5C138 184.224 137.776 184 137.5 184C137.224 184 137 184.224 137 184.5C137 184.776 137.224 185 137.5 185Z" fill="#F2F2F2"/>
<path d="M16.6935 301.706L30.3515 282.36L16.6952 303.805L16.6963 306C15.7165 305.996 14.7466 305.968 13.7865 305.918L14.7983 277.715L14.7828 277.497L14.8078 277.455L14.9043 274.79L0.46521 253.765L14.9114 272.795L14.9566 273.359L15.7209 252.05L3.29373 230.282L15.803 248.307L16.2121 204.147L16.2142 204L16.2168 204.145L16.6322 238.957L28.3734 224.956L16.6332 241.956L16.6517 261.024L27.5248 242.542L16.6564 263.827L16.6668 274.43L32.4652 248.692L16.6685 278.129L16.6935 301.706Z" fill="#383676" fill-opacity="0.15"/>
<path d="M26.0365 213.464C26.061 210.204 25.3989 206.977 24.0948 204C21.359 205.999 19.1042 208.604 17.5 211.618C15.8958 208.604 13.641 205.999 10.9052 204C9.60109 206.977 8.93899 210.204 8.96349 213.464C6.20367 211.894 3.14909 210.936 0 210.652C0 210.652 0.590251 218.014 5.42274 222.803C9.71952 227.061 15.923 227.851 17.2457 227.974L17.2827 228L17.2928 227.979C17.427 227.99 17.5 227.995 17.5 227.995C17.5 227.995 17.4888 227.855 17.4572 227.604C17.4708 227.572 17.4851 227.537 17.5 227.501C17.5149 227.537 17.5292 227.572 17.5429 227.604C17.5112 227.855 17.5 227.995 17.5 227.995C17.5 227.995 17.573 227.99 17.7072 227.979L17.7173 228L17.7543 227.974C19.077 227.851 25.2805 227.061 29.5773 222.803C34.4097 218.014 35 210.652 35 210.652C31.8509 210.936 28.7963 211.894 26.0365 213.464Z" fill="#FFF29A"/>
</svg>
